<?xml version="1.0" standalone="no"?>
<!DOCTYPE svg PUBLIC "-//W3C//DTD SVG 20010904//EN"
 "http://www.w3.org/TR/2001/REC-SVG-20010904/DTD/svg10.dtd">
<svg version="1.0" xmlns="http://www.w3.org/2000/svg"
 width="1080.000000pt" height="1080.000000pt" viewBox="0 0 1080.000000 1080.000000"
 preserveAspectRatio="xMidYMid meet">
<metadata>
Created by potrace 1.15, written by Peter Selinger 2001-2017
</metadata>
<g transform="translate(0.000000,1080.000000) scale(0.100000,-0.100000)"
fill="#000000" stroke="none">
<path d="M2775 8414 c-505 -52 -804 -217 -887 -487 -28 -95 -22 -256 16 -365
87 -252 266 -496 582 -793 74 -70 322 -269 335 -269 5 0 26 -15 46 -33 74 -65
390 -277 414 -277 5 0 9 -4 9 -9 0 -5 14 -14 30 -21 17 -7 30 -19 30 -26 0 -8
3 -13 8 -13 23 4 42 -2 37 -12 -4 -6 -1 -9 6 -7 20 4 120 -53 112 -65 -3 -5 3
-6 16 -2 12 4 21 2 21 -4 0 -6 11 -13 25 -17 14 -3 25 -13 25 -21 0 -9 6 -13
14 -10 10 4 13 1 9 -9 -4 -12 0 -14 21 -8 16 4 26 2 26 -5 0 -6 3 -10 8 -10
19 3 33 -2 28 -10 -4 -5 -2 -11 2 -13 5 -1 0 -12 -11 -23 -20 -20 -20 -20 -14
3 6 28 -23 47 -60 37 -18 -4 -23 -3 -17 7 4 6 -8 2 -28 -10 -41 -25 -58 -28
-58 -8 0 7 -7 19 -15 26 -12 10 -23 5 -61 -33 -25 -25 -45 -48 -44 -51 1 -4 0
-10 -3 -14 -2 -4 -3 -2 -1 5 4 18 -8 24 -23 12 -23 -20 -14 1 12 27 28 28 31
39 13 51 -17 10 -38 13 -37 5 5 -31 -2 -32 -241 -32 l-240 0 0 25 c0 22 -4 25
-34 25 -41 0 -57 -17 -21 -22 14 -2 24 -7 23 -13 -2 -5 -7 -9 -12 -7 -20 7
-67 -11 -76 -29 -10 -17 -7 -19 25 -19 22 0 34 4 30 10 -3 6 -1 10 4 10 6 0
11 -4 11 -10 0 -5 9 -10 19 -10 25 0 34 -14 26 -40 -5 -16 -15 -20 -55 -20
-55 0 -100 16 -100 37 0 7 5 13 10 13 6 0 10 12 9 28 0 24 -1 25 -9 7 -8 -19
-9 -19 -9 3 -1 25 -11 26 -121 14 -37 -4 -80 -5 -98 -1 -20 4 -32 2 -32 -4 0
-6 -3 -8 -6 -5 -3 4 0 16 6 28 19 36 3 35 -21 -1 -11 -19 -18 -25 -15 -14 5
17 4 18 -6 5 -14 -17 -32 -20 -44 -7 -12 11 -26 8 -18 -5 4 -7 3 -8 -4 -4 -7
4 -12 19 -12 34 -1 24 -2 25 -11 9 -6 -10 -8 -25 -5 -33 3 -9 1 -12 -4 -9 -6
4 -23 9 -38 11 -28 5 -55 24 -34 24 19 0 14 17 -7 23 -13 3 -30 -6 -51 -28
l-33 -34 39 -4 39 -4 -42 -1 c-24 -1 -43 3 -43 8 0 16 -237 13 -244 -2 -3 -7
-3 -1 0 15 5 20 2 27 -9 27 -8 0 -17 6 -19 12 -3 9 -9 8 -22 -5 -10 -9 -14
-17 -10 -17 4 0 -1 -6 -11 -14 -29 -21 -45 -10 -35 25 6 22 5 29 -5 29 -7 0
-15 -7 -19 -15 -3 -8 -1 -15 4 -15 6 0 10 -5 10 -11 0 -6 -7 -9 -15 -5 -8 3
-15 2 -15 -2 0 -6 -258 -12 -522 -12 -5 0 -8 -9 -8 -20 0 -11 -4 -20 -10 -20
-5 0 -10 9 -10 20 0 11 -4 20 -10 20 -5 0 -10 -8 -10 -17 0 -15 -2 -16 -10 -3
-6 10 -6 16 0 18 6 2 10 10 10 17 0 8 -16 14 -45 17 -35 2 -44 0 -40 -10 3 -8
5 -16 5 -18 0 -2 8 -4 19 -4 14 0 17 -6 13 -25 -2 -14 -8 -28 -13 -31 -5 -3
-9 -21 -9 -40 0 -48 -16 -74 -45 -74 -32 0 -50 32 -34 61 6 12 7 19 1 15 -6
-4 -8 2 -5 15 4 14 8 17 13 9 5 -8 10 -2 14 14 3 14 11 26 16 26 6 0 10 7 10
16 0 24 -23 11 -31 -17 -6 -22 -7 -22 -8 -3 -1 28 -26 39 -28 13 -1 -11 2 -17
8 -14 11 8 12 -6 0 -24 -18 -29 -23 46 -5 81 9 18 13 30 9 26 -5 -4 -14 0 -21
10 -12 15 -12 14 -8 -8 4 -16 3 -21 -3 -13 -6 8 -9 -1 -9 -27 0 -38 -28 -85
-44 -75 -9 5 -40 -60 -40 -85 0 -10 -4 -21 -9 -25 -14 -8 -50 -109 -68 -189
-30 -140 -33 -162 -34 -258 -1 -88 1 -103 29 -162 55 -117 167 -210 281 -235
37 -8 800 -11 2724 -11 2882 0 2735 -2 2828 52 59 35 136 112 161 162 11 23
22 42 23 44 2 2 49 10 106 18 281 38 503 124 631 242 l27 25 133 -52 c73 -29
207 -84 298 -121 91 -37 284 -116 430 -174 146 -59 297 -120 335 -136 39 -16
171 -70 295 -120 124 -50 234 -95 245 -100 118 -55 429 -170 459 -170 76 0
155 64 177 143 21 78 -22 177 -93 210 -18 8 -145 61 -283 117 -243 98 -764
310 -875 355 -30 12 -172 70 -315 128 -143 58 -350 142 -459 186 -110 45 -201
81 -203 81 -2 0 -3 16 -3 36 0 97 -58 267 -141 411 -149 261 -488 604 -864
875 -909 654 -2171 1150 -3270 1284 -124 15 -617 27 -710 18z m490 -264 c278
-22 556 -63 780 -115 33 -8 101 -23 150 -34 273 -63 664 -187 935 -298 513
-209 881 -403 1295 -682 285 -192 473 -346 710 -585 192 -193 286 -304 410
-481 l77 -110 -4 -76 c-9 -159 -95 -262 -298 -356 -86 -40 -274 -90 -372 -99
l-66 -7 -7 59 c-19 178 -71 366 -107 385 -13 7 -18 6 -18 -2 0 -7 -3 -10 -6
-7 -3 4 -1 16 6 27 7 14 7 21 0 21 -5 0 -10 8 -10 17 0 14 -3 14 -15 -4 -13
-18 -22 -21 -48 -16 -18 3 -34 9 -37 12 -3 4 -18 12 -35 20 -27 12 -28 14 -10
21 14 5 4 9 -35 14 -101 12 -161 29 -171 47 -7 14 -18 17 -54 14 -40 -4 -45
-2 -45 15 0 21 -15 27 -25 9 -4 -5 0 -18 8 -27 18 -21 12 -42 -13 -42 -22 0
-37 18 -42 50 -2 21 -9 25 -42 28 -27 2 -35 6 -26 12 9 6 1 12 -28 19 -23 7
-46 19 -51 29 -9 15 -12 15 -21 2 -9 -13 -11 -13 -20 0 -8 12 -12 13 -19 2 -7
-12 -12 -12 -30 -1 -11 8 -21 18 -21 23 0 4 -9 6 -20 3 -13 -3 -20 0 -20 8 0
12 -61 29 -86 24 -5 -1 -16 -1 -24 0 -13 1 -13 2 0 11 13 8 12 10 -2 10 -10 0
-18 -4 -18 -10 0 -16 -19 -12 -42 10 -12 11 -30 20 -40 20 -10 0 -18 7 -18 18
0 14 -2 15 -10 2 -14 -21 -12 -27 9 -33 29 -7 23 -61 -7 -65 -31 -5 -106 71
-99 99 3 12 0 19 -9 19 -8 0 -26 7 -40 16 -13 9 -45 18 -70 20 -25 2 -51 10
-59 17 -7 8 -33 17 -57 21 -32 5 -39 9 -28 16 11 7 8 10 -15 11 -16 1 -37 2
-46 3 -9 1 -22 6 -30 12 -22 16 -176 54 -196 48 -15 -5 -16 -4 -3 5 13 9 13
11 -2 11 -10 0 -18 4 -18 10 0 6 -9 6 -25 0 -21 -8 -25 -7 -25 10 0 11 -4 20
-10 20 -5 0 -10 -4 -10 -10 0 -13 -37 -13 -42 1 -3 9 -28 17 -98 33 -8 2 -14
9 -12 15 1 8 -4 8 -17 -1 -16 -10 -23 -9 -39 5 -17 16 -21 16 -60 -3 -22 -11
-48 -20 -57 -20 -17 0 -21 25 -5 35 16 10 12 19 -19 36 -17 10 -34 13 -42 8
-7 -4 -18 -4 -24 0 -17 12 -90 31 -123 31 -19 0 -36 7 -44 18 -7 11 -37 25
-65 31 -29 7 -53 17 -53 23 0 5 -5 6 -10 3 -17 -11 -70 6 -70 21 0 11 -6 13
-20 9 -12 -4 -27 -1 -35 5 -8 6 -18 9 -24 6 -5 -3 -41 5 -80 19 -39 15 -75 23
-80 20 -5 -3 -12 -1 -16 5 -3 5 -14 10 -25 10 -10 0 -20 6 -23 14 -3 8 -29 16
-64 20 -32 4 -73 15 -91 26 -39 24 -43 25 -36 5 4 -9 0 -15 -10 -15 -9 0 -16
6 -16 13 0 18 -37 51 -41 38 -3 -7 -18 -5 -44 4 -22 8 -49 14 -59 15 -11 0
-33 4 -50 10 -17 5 -44 12 -59 15 -24 5 -27 8 -17 20 11 13 5 15 -39 15 -30 0
-51 -4 -51 -11 0 -6 -7 -3 -16 5 -24 24 -54 38 -69 32 -10 -3 -12 0 -8 12 6
14 4 15 -9 4 -13 -10 -17 -10 -22 3 -3 8 -12 15 -21 15 -8 0 -15 5 -15 12 0 6
-3 9 -6 5 -10 -9 67 -78 79 -70 5 3 7 1 3 -5 -13 -22 356 -313 616 -485 388
-255 941 -550 1413 -752 162 -70 237 -108 180 -92 -93 26 -362 116 -481 161
-227 87 -324 125 -446 178 -76 32 -139 58 -142 58 -5 0 -116 52 -300 139 -393
187 -843 462 -1129 688 -37 30 -75 53 -84 51 -10 -2 -18 3 -18 12 0 9 -43 53
-95 99 -52 45 -120 107 -150 136 l-55 54 -45 -10 c-24 -6 -49 -14 -55 -19 -29
-24 -228 235 -313 405 -62 124 -87 215 -86 315 1 104 21 154 90 228 47 50 53
53 139 71 273 59 718 86 1030 61z"/>
<path d="M1633 4770 c2 -8 -7 -23 -20 -34 -21 -16 -37 -18 -104 -14 -96 6
-112 -5 -79 -52 36 -51 74 -65 170 -64 47 1 116 9 153 18 157 37 393 4 445
-62 21 -28 26 -29 63 -21 22 5 77 29 122 54 159 85 308 86 431 2 27 -19 52
-27 80 -27 47 0 156 29 206 55 79 41 442 -5 499 -64 45 -45 124 -30 234 43 68
45 123 65 212 74 99 11 137 2 186 -42 39 -36 44 -38 90 -32 26 4 65 14 86 22
51 22 173 14 238 -15 73 -32 119 -29 415 34 170 36 242 33 296 -14 55 -49 112
-71 205 -78 l82 -6 -6 31 c-9 46 17 58 143 66 58 4 146 13 195 21 108 18 201
19 211 3 4 -7 16 6 30 33 28 53 32 78 9 59 -12 -10 -15 -10 -15 1 -1 9 -5 8
-15 -5 -15 -20 -15 -20 -16 0 0 10 -3 13 -6 6 -2 -6 -9 -9 -14 -6 -13 7 -241
6 -328 -3 -43 -4 -65 -2 -70 6 -5 8 -16 7 -40 -5 -28 -14 -34 -14 -49 -1 -11
10 -24 12 -37 7 -27 -11 -47 -12 -41 -2 3 5 -27 8 -66 8 -43 0 -64 -3 -52 -7
15 -6 13 -8 -11 -8 -17 -1 -41 7 -55 16 -19 14 -23 14 -18 2 5 -13 -2 -15 -40
-12 -26 1 -126 2 -222 1 -301 -3 -342 -3 -397 3 -29 3 -53 2 -53 -2 0 -11 -49
-17 -53 -6 -2 7 -13 7 -34 0 -21 -8 -34 -8 -41 -1 -8 8 -24 6 -53 -6 -41 -17
-42 -16 -65 5 -21 20 -24 21 -30 5 -5 -14 -14 -16 -43 -11 -20 4 -41 11 -48
17 -6 5 -31 7 -55 3 -75 -10 -478 -14 -472 -4 3 5 -2 9 -10 9 -8 0 -18 -4 -21
-10 -3 -5 -23 -9 -43 -9 l-37 1 30 9 c21 6 14 6 -20 2 -79 -10 -159 -9 -174 2
-11 7 -13 7 -7 -2 5 -10 -10 -12 -66 -8 -50 3 -75 0 -80 -8 -6 -9 -8 -9 -8 1
0 8 -21 12 -67 13 -47 0 -62 3 -48 9 16 7 17 9 3 9 -9 1 -23 -6 -31 -14 -8 -8
-18 -11 -22 -7 -9 9 -175 9 -175 0 0 -4 -12 -3 -26 2 -14 6 -35 10 -47 9 -21
0 -21 -1 -2 -9 15 -6 7 -9 -30 -9 -38 0 -45 3 -30 10 18 8 17 8 -5 6 -14 -1
-24 -8 -23 -15 2 -6 -4 -12 -13 -12 -8 0 -13 4 -10 9 10 16 -51 23 -74 9 -14
-8 -24 -9 -26 -3 -3 6 -49 9 -121 6 -102 -3 -368 -4 -456 -2 -18 1 -26 5 -21
12 10 16 -96 0 -114 -17 -15 -16 -26 -19 -18 -5 3 5 -4 8 -17 8 -12 -1 -33 3
-46 7 -18 6 -22 5 -16 -4 5 -9 4 -11 -4 -6 -6 4 -19 2 -27 -5 -12 -10 -13 -9
-8 5 3 9 1 16 -5 16 -6 0 -11 -4 -11 -9 0 -6 -15 -5 -36 1 -20 5 -43 6 -52 2
-26 -10 -65 -12 -84 -2 -10 5 -19 4 -23 -3 -5 -6 -12 -4 -22 8 -10 13 -13 14
-10 3z"/>
<path d="M1304 4315 c-126 -27 -229 -108 -280 -218 -97 -213 38 -455 284 -506
38 -8 758 -11 2536 -11 2435 0 2484 0 2560 20 117 30 195 92 253 203 25 46 28
63 28 147 0 84 -3 102 -28 152 -32 66 -96 134 -159 171 -103 60 -15 57 -1997
57 l-1810 0 -113 -54 c-203 -96 -330 -156 -333 -156 -2 0 -65 -29 -141 -66
-111 -53 -140 -63 -149 -52 -35 39 -187 212 -234 266 l-53 62 -151 -1 c-86 0
-179 -6 -213 -14z"/>
<path d="M1940 2861 c-8 -5 -238 -8 -512 -7 -273 0 -494 -2 -491 -6 2 -5 -1
-8 -6 -8 -6 0 -11 5 -11 11 0 13 -95 8 -108 -5 -4 -4 -7 -34 -6 -66 3 -139
111 -298 252 -369 105 -53 -7 -51 2780 -51 1737 0 2608 4 2652 11 97 15 179
58 254 131 87 85 136 194 136 296 0 61 54 57 -810 58 -627 0 -790 -2 -790 -12
0 -10 -6 -9 -27 2 -25 12 -28 12 -31 -1 -2 -8 -10 -15 -18 -15 -10 0 -12 5 -8
13 5 7 0 6 -11 -3 -11 -9 -16 -10 -11 -2 4 6 2 12 -3 12 -6 0 -11 -4 -11 -9 0
-15 -71 -19 -77 -3 -4 10 -16 12 -47 7 -22 -4 -45 -10 -51 -13 -18 -11 -45
-12 -45 -2 0 6 -12 10 -26 10 -14 0 -32 7 -40 15 -10 10 -21 12 -32 6 -20 -9
-2850 -8 -2872 2 -8 3 -22 3 -30 -2z"/>
</g>
</svg>
